<svg t="1566975327661" class="icon" viewBox="0 0 1113 1024" version="1.1" xmlns="http://www.w3.org/2000/svg" p-id="16678" width="32" height="32"><path d="M998.645367 909.495208H116.140575c-59.70607 0-108.779553-49.073482-108.779553-108.779553V202.837061c0-59.70607 49.073482-108.779553 108.779553-108.779553H997.827476c59.70607 0 108.779553 49.073482 108.779553 108.779553v597.878594c0.817891 60.523962-48.255591 108.779553-107.961662 108.779553zM116.140575 159.488818c-23.71885 0-43.348243 19.629393-43.348243 43.348243v597.878594c0 23.71885 19.629393 43.348243 43.348243 43.348243H997.827476c23.71885 0 43.348243-19.629393 43.348243-43.348243V202.837061c0-23.71885-19.629393-43.348243-43.348243-43.348243H116.140575z" p-id="16679" fill="#dbdbdb"></path><path d="M488.28115 596.242812c-8.996805 0-18.811502-2.453674-26.990415-7.361023-17.175719-9.814696-26.990415-27.808307-26.990416-47.4377V331.246006c0-19.629393 9.814696-37.623003 26.990416-47.437699 17.175719-9.814696 37.623003-9.814696 54.798722 0l182.389776 105.507987c17.175719 9.814696 26.990415 27.808307 26.990416 47.4377s-9.814696 37.623003-26.990416 47.437699L516.089457 588.881789c-8.996805 4.907348-17.99361 7.361022-27.808307 7.361023z m11.450479-246.185304V523.450479l149.674122-86.696485-149.674122-86.696486zM947.118211 750.824281H167.667732c-17.99361 0-32.715655-14.722045-32.715655-32.715655s14.722045-32.715655 32.715655-32.715655h778.632587c17.99361 0 32.715655 14.722045 32.715655 32.715655s-13.904153 32.715655-31.897763 32.715655z" p-id="16680" fill="#dbdbdb"></path></svg>
