<svg t="1565857871343" class="icon" viewBox="0 0 1024 1024" version="1.1" xmlns="http://www.w3.org/2000/svg" p-id="5495" width="32" height="32"><path d="M122.3 499.6H66.6c0 164.7 121 302.2 278.4 329V945h55.7V778c-19.1 0-37.7-2-55.7-5.6-126.9-25.9-222.7-138.3-222.7-272.8zM901.7 499.6c0 134.4-95.8 246.9-222.7 272.7-18 3.7-36.6 5.6-55.7 5.6v167H679V828.6c157.4-26.7 278.4-164.2 278.4-329h-55.7zM701.6 541.4l82.6-82.6c12.4-12.4 22.5-26.1 31.3-40.4 53-85.8 42.9-200.3-31.3-274.6-12.3-12.3-25.9-22.3-40-31.1C708.3 90.6 667.6 79 626.7 79c-39.9 0-79.5 11.2-114.7 32.4-15.2 9.1-29.7 19.5-42.7 32.6l-4.9 4.9-134 134 39.4 39.4 138.9-138.9c1-1 2.3-1.8 3.4-2.8 14.1-13.4 30.2-24.1 47.6-31.7 20.9-9.1 43.5-14.2 67.1-14.2h0.1c44.7 0 86.6 17.3 118 48.6 65.1 65.1 65.1 171.1 0 236.2l-7.8 7.8-80.1 80-30.3 30.3c-30.6 30.6-71.2 47.5-114.7 48.3-43.5-0.9-84.2-17.8-114.7-48.3L367 507.3l-80-80-7.8-7.8c-65.1-65.1-65.1-171.1 0-236.2 31.3-31.3 73.2-48.6 118-48.6h0.1c10.6 0 20.9 1.3 31 3.3l44.8-44.8c-24.4-9-50-14.2-75.8-14.2-40.9 0-81.6 11.6-117.4 33.8-14.2 8.8-27.8 18.9-40 31.1-74.2 74.2-84.3 188.8-31.3 274.6 8.8 14.3 18.9 28 31.3 40.4l82.6 82.6c8.2 12.6 17.8 24.5 28.8 35.5 43.3 43.3 100.4 64.9 157.5 64.9 1.1 0 2.2-0.3 3.4-0.3 1.1 0 2.2 0.3 3.4 0.3 57.1 0 114.2-21.7 157.5-64.9 10.8-11 20.3-23 28.5-35.6z" p-id="5496" fill="#bfbfbf"></path></svg>
