<svg t="1566976260771" class="icon" viewBox="0 0 1228 1024" version="1.1" xmlns="http://www.w3.org/2000/svg" p-id="21862" width="32" height="32"><path d="M1213.439191 1023.999317H15.35999A15.223457 15.223457 0 0 1 0 1008.980661v-30.173847c0-8.328528 6.826662-15.018657 15.35999-15.018657H122.879918V421.614652c0-33.245845 27.511448-60.21116 61.439959-60.21116h245.759836V240.981173c0-33.314111 27.511448-60.279426 61.439959-60.279427h245.759836V60.21116c0-33.245845 27.511448-60.21116 61.43996-60.21116h245.759836c33.928511 0 61.439959 26.965315 61.439959 60.21116v903.576997h107.519928c8.465061 0 15.35999 6.690129 15.35999 15.018657v30.10558c0 8.328528-6.826662 15.086923-15.35999 15.086923zM430.079713 421.614652H184.319877v542.173505h245.759836V421.614652z m307.199795-180.701746H491.519672v722.875251h245.759836V240.912906zM1044.479304 60.279426h-245.759836v903.508731h245.759836V60.279426z" p-id="21863" fill="#dbdbdb"></path></svg>
