<svg t="1566972456290" class="icon" viewBox="0 0 1024 1024" version="1.1" xmlns="http://www.w3.org/2000/svg" p-id="6603" width="32" height="32"><path d="M256 298.666667c0-23.552 19.456-42.666667 42.453333-42.666667h341.76c23.466667 0 42.453333 18.944 42.453334 42.666667 0 23.552-19.456 42.666667-42.453334 42.666666h-341.76A42.453333 42.453333 0 0 1 256 298.666667z m0 213.333333c0-23.552 19.328-42.666667 42.538667-42.666667h256.256c23.466667 0 42.538667 18.944 42.538666 42.666667 0 23.552-19.328 42.666667-42.538666 42.666667H298.538667A42.496 42.496 0 0 1 256 512z m0 213.333333c0-23.552 19.2-42.666667 43.050667-42.666666h148.565333c23.765333 0 43.050667 18.944 43.050667 42.666666 0 23.552-19.2 42.666667-43.050667 42.666667H299.093333A42.752 42.752 0 0 1 256 725.333333z m276.48 213.333334H170.453333A42.325333 42.325333 0 0 1 128 896.384V127.573333C128 104.277333 146.986667 85.333333 170.453333 85.333333h597.76c23.381333 0 42.453333 19.072 42.453334 42.581334v298.88a42.666667 42.666667 0 0 0 85.333333 0V127.914667A127.914667 127.914667 0 0 0 768.213333 0H170.453333A127.701333 127.701333 0 0 0 42.666667 127.616V896.426667A127.658667 127.658667 0 0 0 170.496 1024h361.941333a42.666667 42.666667 0 0 0 0-85.333333z m151.808-319.445334c12.8-7.168 26.538667-12.8 41.045333-16.512v-32.426666c0-23.552 18.944-42.666667 42.666667-42.666667 23.552 0 42.666667 18.944 42.666667 42.666667v32.426666c14.506667 3.712 28.202667 9.301333 40.96 16.469334l26.837333-27.818667a42.581333 42.581333 0 0 1 60.330667-1.024 42.581333 42.581333 0 0 1 1.066666 60.330667l-26.666666 27.605333c8.96 14.378667 15.786667 30.208 20.096 47.061333h32.426666c23.552 0 42.666667 18.944 42.666667 42.666667 0 23.552-18.944 42.666667-42.666667 42.666667h-32.426666c-3.626667 14.08-9.045333 27.52-15.914667 39.978666l22.186667 20.693334a42.581333 42.581333 0 0 1 2.133333 60.330666 42.581333 42.581333 0 0 1-60.330667 2.090667l-22.656-21.162667a169.728 169.728 0 0 1-48.042666 20.693334v20.992c0 23.552-18.944 42.666667-42.666667 42.666666-23.552 0-42.666667-18.944-42.666667-42.666666v-20.992a169.685333 169.685333 0 0 1-45.866666-19.328l-19.285334 19.285333a42.581333 42.581333 0 0 1-60.330666 0 42.581333 42.581333 0 0 1 0-60.373333l20.053333-20.053334a169.6 169.6 0 0 1-17.194667-42.154666h-20.992c-23.552 0-42.666667-18.944-42.666666-42.666667 0-23.552 18.944-42.666667 42.666666-42.666667h20.992c4.309333-16.768 11.093333-32.554667 20.053334-46.933333l-21.418667-20.650667a42.581333 42.581333 0 0 1-1.066667-60.330666 42.581333 42.581333 0 0 1 60.330667-1.066667l23.68 22.869333zM768 853.333333a85.333333 85.333333 0 1 0 0-170.666666 85.333333 85.333333 0 0 0 0 170.666666z" p-id="6604" fill="#dbdbdb"></path></svg>
