<svg t="1574155187037" class="icon" viewBox="0 0 1169 1024" version="1.1" xmlns="http://www.w3.org/2000/svg" p-id="10145" width="200" height="200"><path d="M1159.17385 346.627964L981.794 66.601389a52.717583 52.717583 0 0 0-72.353459-16.336465l-885.001354 560.607918a52.717583 52.717583 0 0 0-16.336466 72.295063l177.37985 280.084971a52.717583 52.717583 0 0 0 72.353459 16.336465l884.986755-560.607918c24.511997-15.562709 31.899175-48.177243 16.336465-72.353459z m-35.402974 42.001796l-884.986756 560.607918a16.409461 16.409461 0 0 1-22.949886-5.051311L38.439785 664.115995a16.409461 16.409461 0 0 1 5.06591-22.949887L928.915826 80.601987a16.42406 16.42406 0 0 1 22.949887 5.065911L1129.216364 365.73827a16.94963 16.94963 0 0 1-5.445488 22.949887z m0 0" fill="#13227a" p-id="10146"></path><path d="M352.38022 178.635377l-4.277556-38.118418 32.672931 19.840264 35.037995-15.562709-8.555111 36.950485 25.679931 28.395375-38.118419 3.109622-19.066509 33.067108-14.818152-35.461371-37.344663-7.781354zM552.257381 107.449851l15.56271-35.037995 18.35115 33.475884 38.118418 3.883378-26.059509 27.621619 8.175533 37.344663-34.629219-16.336465-33.067107 19.066509 5.06591-37.73884-28.409974-25.227357z m401.068249 585.426498l22.555709 31.125419-38.118419-1.167933-22.570308 30.658245-10.890977-36.497911-36.17673-12.05891 31.592592-21.373177v-38.118419l30.337064 23.358664 36.17673-11.679332z m-138.808857 161.072582l3.883378 38.118419-32.67293-20.234442-35.037995 15.183131 8.949288-36.950485-25.285753-28.395375 38.118418-2.730044L791.917266 785.873027l14.365578 35.402974 37.344663 8.175532z m-200.344335 69.243838l-15.942288 35.037995-18.234356-33.870062-38.118419-4.277555 26.439087-27.62162-7.781354-37.344662 34.23504 16.730642 33.402889-19.066509-5.06591 37.738841 28.424573 25.67993z m0 0" fill="#13227a" p-id="10147"></path><path d="M217.775923 334.233273l-22.176131-31.125419 38.118418 1.562111 22.949887-30.731242 10.496799 36.950486 36.191329 12.380091-31.899174 21.402376-0.394178 38.118418-29.942886-23.738241-36.497912 11.285154z m0 0" fill="#13227a" p-id="10148"></path><path d="M327.868222 109.771118C474.137252 17.197816 652.305456 14.467772 796.618197 87.215409l35.037995-22.176131a500.882736 500.882736 0 0 0-137.34894-52.119017 519.51127 519.51127 0 0 0-196.066779-5.839666 498.736659 498.736659 0 0 0-189.43876 72.747637 504.853709 504.853709 0 0 0-146.648607 140.429363A515.029327 515.029327 0 0 0 83.186225 399.593733a504.240544 504.240544 0 0 0-11.241357 146.648607l35.037995-22.176131c-3.970973-161.81714 74.222153-321.70719 220.885359-414.295091z m508.810083 803.684008c-146.26903 92.587902-324.422634 95.303346-468.749975 22.570308l-35.037995 22.176131A501.014129 501.014129 0 0 0 470.210077 1010.335182a519.51127 519.51127 0 0 0 196.05218 5.839666 498.678262 498.678262 0 0 0 189.453358-72.747637 511.233544 511.233544 0 0 0 236.506466-466.414109l-35.037995 22.176131c4.350551 161.81714-74.251351 321.692591-220.491182 414.280492z m0 0" fill="#13227a" p-id="10149"></path><path d="M433.28879 276.27459a273.383955 273.383955 0 0 1 131.480075-42.337577l54.016909-34.235041c-71.185526-8.55511-142.76523 7.781355-204.62189 46.717326a312.553514 312.553514 0 0 0-129.538387 164.97056l54.016909-34.235041a278.318473 278.318473 0 0 1 94.52959-100.734236z m297.589369 470.370482a273.442352 273.442352 0 0 1-131.480075 42.337577l-54.016909 34.235041c71.185526 8.55511 142.76523-7.781355 204.62189-46.717326a312.568113 312.568113 0 0 0 129.538387-164.97056l-54.016909 34.235041a272.099229 272.099229 0 0 1-94.52959 100.734235z m0 0" fill="#13227a" p-id="10150"></path><path d="M186.88409 676.569082l-19.256298-29.957485 205.059865-131.801258 19.256299 29.957486-79.594646 51.097076a221.031351 221.031351 0 0 1 6.000257 46.410744l10.30701-6.613422 16.847436 26.278496 9.241271-35.037994q7.69376 1.693503 25.548538 4.759327 21.270983 2.204474 88.660726 14.467772l-8.438317 42.454371a961.340386 961.340386 0 0 0-114.413652-25.709129l71.535906 111.420824-33.709471 21.650561-67.375144-104.865799q-5.226501 53.637331-29.052338 111.260233-5.839666-2.919833-24.541195-9.372664-11.372749-3.270213-18.117563-5.547682 41.709813-91.595158 30.030481-167.452418zM416.178569 488.23986l14.117392-31.563394a97.172039 97.172039 0 0 1 13.504227 4.554939q20.26364 6.832409 43.797494 16.803639l-15.38752 33.694871a529.65769 529.65769 0 0 0-56.031593-23.490055z m202.461214 113.289517q48.367032-29.738498 125.479819-80.616587 3.051225 19.183302 6.204645 34.366433-66.163414 41.169644-52.104419 32.118162l-28.088792 18.044568-35.578164 22.949886q-39.330149 25.271154-72.222067 17.30001-3.620593 12.891062-6.569624 41.257239l-34.162045-24.395204q1.664305-7.679161 9.095279-27.008454-6.102451 13.139248 1.007343-4.613336l-39.709728-61.798264-20.599421 13.241443-18.643133-29.023139 47.753867-30.658246 58.396658 90.821403q26.04491 9.679246 59.739782-11.985914zM471.305014 442.194095l143.261602-91.974737 16.24887 25.285753-29.037739 55.695813 46.83412-30.147275 61.316491 95.507734q16.24887 25.285753-7.50397 41.855805l-25.256555 16.24887q-3.343209-3.124221-10.628192-10.365406-6.087852-5.328695-9.43106-8.496714a121.304458 121.304458 0 0 1 11.839923-6.277641l6.555024-4.204559q9.343465-6.000257 2.744643-16.321866l-2.408862-3.751986-29.957485 19.256298 21.708957 33.709471-27.154446 17.446002-21.650561-33.709471-29.023139 18.643133 21.650561 33.709471-28.147189 18.029968-76.995994-119.859141 42.133189-27.066851a96.923853 96.923853 0 0 1-14.51157 0q-13.577223-0.52557-19.460686 0.598566l3.751985-20.935202-31.840778 20.438831z m97.639212-4.525741l22.278325-39.417745-65.550248 42.103991q7.430975-0.802954 22.876891-1.459916 12.949459-0.408777 20.380433-1.211731z m-21.898746 56.44037l9.022283 14.044396L585.090902 489.509987l-9.022283-14.044396z m21.051995 32.775124l9.022284 14.044397 29.023139-18.643134-9.022284-14.044396z m74.119958-74.076161l-9.022283-14.044396-30.030482 19.256298 9.022284 14.044396z m-17.927774 37.957828l9.022284 14.044396 29.899089-19.227099-9.022284-14.044397zM669.152892 324.349639l15.650304-31.227613q30.351663 12.248699 53.622732 23.75284-0.335781 1.547511-8.963887 18.978914-5.41629 10.102622-8.292326 15.91309-13.781611-7.022198-38.848377-21.343979a97.142841 97.142841 0 0 1-13.168446-6.073252z m200.008554 113.610698q18.380348-10.4822 94.89457-62.294635l29.957485-19.256298a212.534637 212.534637 0 0 0 7.752157 34.702214q-71.185526 45.724583-125.757204 78.149328-33.709471 21.650561-60.717925 12.555281-8.525912 27.9574-9.372664 43.067536l-34.760611-25.285753a129.173408 129.173408 0 0 1 5.226501-16.584651q3.284812-11.343551 5.226501-16.584651l-39.125761-60.878516-20.599421 13.226843-19.256298-29.957486 51.505853-33.081707 58.396658 90.821403q27.563223 10.058824 56.527965-8.598908z m-38.556394-185.58458l-23.460857-36.497911 32.716728-21.081194 23.460857 36.497912 31.840778-20.438831 17.518998 27.154446-31.840778 20.438831 47.52028 73.973967q24.074022 37.461456-8.438317 60.98071-18.132162 12.978657-43.403316 29.198329a18.716129 18.716129 0 0 0-3.941774-4.073167q-7.562367-9.693845-24.001027-22.949887c4.379749-2.80304 10.511398-6.29224 18.394947-10.496799q13.139248-8.423718 18.394948-10.496799 16.847436-10.83258 4.817724-29.563308l-42.133189-65.550249-88.018363 56.542564-17.518997-27.154446z m-52.994967 102.836515l12.321695-34.366433q15.971486 4.306754 63.25818 20.205244-37.446857-12.964058 5.839666 2.919833-1.591309 3.693589-3.883378 10.438402l-9.708444 26.074108q-6.759413-2.262871-20.862206-7.766755-10.993171-4.861522-46.965513-17.504399z" fill="#13227a" p-id="10151"></path></svg>
