<svg t="1566974592371" class="icon" viewBox="0 0 1393 1024" version="1.1" xmlns="http://www.w3.org/2000/svg" p-id="15700" width="32" height="32"><path d="M295.295008 854.524031a208.649922 208.649922 0 0 0 69.457364-53.382946 251.395969 251.395969 0 0 0 44.254264-75.013953 243.537364 243.537364 0 0 0 15.875969-86.325582q-10.12093-96.446512-82.356589-230.0031t-86.920931-154.592248a47.092093 47.092093 0 0 0-40.88062-21.035659 46.496744 46.496744 0 0 0-40.88062 21.631007Q136.336868 313.550388 71.443845 435.2T0.001984 639.80155a242.525271 242.525271 0 0 0 15.280621 85.730233 256.734264 256.734264 0 0 0 43.658914 75.609302 206.804341 206.804341 0 0 0 70.052714 53.382946 195.770543 195.770543 0 0 0 83.348837 18.257364 192.07938 192.07938 0 0 0 82.951938-18.257364z m-72.632558-578.282171a1959.947907 1959.947907 0 0 1 106.170542 192.496124q52.986047 108.651163 57.351938 171.063566a210.03907 210.03907 0 0 1-48.223256 132.365892 158.75969 158.75969 0 0 1-251.634108 0 211.944186 211.944186 0 0 1-47.826357-132.365892c2.381395-37.903876 20.63876-91.683721 55.168993-161.339534a2304.515969 2304.515969 0 0 1 113.116279-202.220156 12.363411 12.363411 0 0 1 7.937984-4.564341 12.819845 12.819845 0 0 1 7.937985 4.564341zM1206.575628 1011.299225a38.43969 38.43969 0 0 0 11.510077-28.378295V510.213953c0-0.595349 0.595349-0.992248 2.182946-0.992248h129.587597a52.410543 52.410543 0 0 0 25.6-8.533333 39.689922 39.689922 0 0 0 15.28062-21.035659 42.349147 42.349147 0 0 0 0.595349-26.195349 45.405271 45.405271 0 0 0-15.47907-21.631007l-144.272868-107.95659a38.36031 38.36031 0 0 1-13.494574-27.187596V103.590698a36.097984 36.097984 0 0 0-40.88062-40.88062h-128.595349a38.59845 38.59845 0 0 0-28.378294 11.311627 44.432868 44.432868 0 0 0-12.502326 29.568993v39.689922a6.290853 6.290853 0 0 1-2.182945 5.755039 8.275349 8.275349 0 0 1-6.747287-1.190698l-35.324031-28.378294-145.463566-109.147287a44.016124 44.016124 0 0 0-28.378295-10.12093 48.897984 48.897984 0 0 0-29.568992 10.12093L293.112062 363.75814a18.058915 18.058915 0 0 0-3.968992 26.592248 19.844961 19.844961 0 0 0 12.502325 7.541085 19.229767 19.229767 0 0 0 14.089923-3.572093L783.877953 41.07907a10.16062 10.16062 0 0 1 11.510078 0l144.272868 108.948837L975.977178 178.604651a41.674419 41.674419 0 0 0 22.226357 8.930233 44.333643 44.333643 0 0 0 23.813953-4.365892 42.587287 42.587287 0 0 0 18.257365-16.074418 46.19907 46.19907 0 0 0 6.151938-23.813954v-39.689922a3.611783 3.611783 0 0 1 2.182945-2.381396h130.778295v195.472869a68.405581 68.405581 0 0 0 7.937985 32.347286 73.168372 73.168372 0 0 0 21.631007 25.6l143.082171 107.95659a3.214884 3.214884 0 0 1 1.190697 4.564341c-0.793798 2.182946-1.984496 2.976744-3.373643 2.182945h-129.587597a45.484651 45.484651 0 0 0-28.973643 12.502326 37.705426 37.705426 0 0 0-11.906977 28.378294v472.706977c0 0.793798-0.793798 1.190698-2.182946 1.190698h-257.984496a1.051783 1.051783 0 0 1-1.190698-1.190698V660.24186a38.419845 38.419845 0 0 0-11.311627-28.973643 45.941085 45.941085 0 0 0-29.568993-11.906977h-171.658914a45.484651 45.484651 0 0 0-28.973644 12.502326 37.705426 37.705426 0 0 0-11.906977 28.378294v322.67907a1.051783 1.051783 0 0 1-1.190697 1.190698H403.251597V746.567442a18.435969 18.435969 0 0 0-5.556589-13.494574 19.170233 19.170233 0 0 0-27.386047 0 18.435969 18.435969 0 0 0-5.556589 13.494574v256.793798a18.11845 18.11845 0 0 0 5.556589 14.288372 19.844961 19.844961 0 0 0 13.693023 5.15969h279.417055a39.213643 39.213643 0 0 0 28.576744-11.510077 38.28093 38.28093 0 0 0 11.311628-28.378295V660.24186c0-0.793798 0.793798-0.992248 2.182946-0.992248h173.84186v323.671318a37.705426 37.705426 0 0 0 11.510078 28.378295 42.170543 42.170543 0 0 0 28.378294 12.502325h257.984496a43.40093 43.40093 0 0 0 29.370543-12.502325z m-808.88062 6.350387a17.384186 17.384186 0 0 0 5.556589-13.693023 16.967442 16.967442 0 0 0-5.556589-13.494573 24.409302 24.409302 0 0 0-13.693024-6.350388h-152.210852V853.333333a16.729302 16.729302 0 0 0-5.755039-12.899224 20.48 20.48 0 0 0-27.187597 0 16.729302 16.729302 0 0 0-5.755039 12.899224v151.218605a16.848372 16.848372 0 0 0 5.755039 13.097674 24.191008 24.191008 0 0 0 13.494574 6.151938h171.658914a24.171163 24.171163 0 0 0 13.693024-6.151938z m-171.658915 0a18.237519 18.237519 0 0 0 5.755039-14.288372V446.710078a18.237519 18.237519 0 0 0-5.755039-14.288373 20.48 20.48 0 0 0-27.187597 0 18.237519 18.237519 0 0 0-5.755039 14.288373v557.84186a16.848372 16.848372 0 0 0 5.755039 13.097674 18.098605 18.098605 0 0 0 27.187597 0z m2.381395-258.579845l79.379845-79.379845a19.071008 19.071008 0 0 0 5.755039-13.693023 18.396279 18.396279 0 0 0-6.151938-13.693023 20.499845 20.499845 0 0 0-13.693023-5.755039 18.07876 18.07876 0 0 0-13.097675 5.755039l-79.578294 79.578295a19.348837 19.348837 0 0 0 13.693023 32.942635 19.071008 19.071008 0 0 0 13.693023-5.755039z m-2.381395-127.206201a18.932093 18.932093 0 0 0 0-27.187597L140.901209 518.151938a23.15907 23.15907 0 0 0-14.288372-5.556589 20.837209 20.837209 0 0 0-13.693023 5.556589 18.297054 18.297054 0 0 0-6.151938 13.693023 17.99938 17.99938 0 0 0 5.755039 13.693023l86.325581 86.325582a18.932093 18.932093 0 0 0 27.187597 0z m0 192.694574a20.797519 20.797519 0 0 0 5.755039-14.288373 18.733643 18.733643 0 0 0-5.755039-13.693023L148.839194 723.944186a16.848372 16.848372 0 0 0-13.693023-5.15969 20.162481 20.162481 0 0 0-13.693024 6.350388 18.435969 18.435969 0 0 0-5.556589 13.494573 17.086512 17.086512 0 0 0 6.747287 13.693024l76.204651 72.632558a18.495504 18.495504 0 0 0 27.187597-0.396899z m1.190698-351.851163l39.689922-32.942636a18.574884 18.574884 0 0 0 7.342636-12.899225 20.658605 20.658605 0 0 0-4.365892-14.288372 17.443721 17.443721 0 0 0-12.502325-7.342635 18.892403 18.892403 0 0 0-14.288372 5.159689l-40.88062 32.942636a17.860465 17.860465 0 0 0-6.747287 12.502326 18.03907 18.03907 0 0 0 4.365891 14.685271 18.555039 18.555039 0 0 0 14.883721 6.747287 18.753488 18.753488 0 0 0 12.502326-4.564341z" p-id="15701" fill="#dbdbdb"></path></svg>
