<svg t="1565923126496" class="icon" viewBox="0 0 1024 1024" version="1.1" xmlns="http://www.w3.org/2000/svg" p-id="2879" width="32" height="32"><path d="M997.888 502.784c-16.896-8.704-39.936-4.608-49.664 3.072l-136.704 116.224v-98.304c0-47.104-37.376-85.504-83.456-85.504h-14.848c48.64-39.424 80.384-100.352 80.384-168.96 0-118.784-94.72-215.552-210.944-215.552C471.04 53.76 379.392 143.36 372.224 256 352.256 178.176 282.624 119.808 200.192 119.808c-97.792 0-177.664 81.408-177.664 181.248 0 54.784 24.064 104.448 61.44 137.216h-0.512c-46.08 0-83.456 38.4-83.456 85.504v360.96c0 47.104 37.376 85.504 83.456 85.504H727.552c46.08 0 83.456-38.4 83.456-85.504v-119.808l134.656 132.608c8.704 8.704 19.968 13.312 31.232 13.312 5.632 0 11.776-1.536 16.896-3.584 18.432-8.192 30.72-28.672 30.72-51.2v-305.664c0-31.232-18.432-43.52-26.624-47.616z m-415.232-392.192c85.504 0 155.136 71.168 155.136 158.72s-69.632 158.72-155.136 158.72-155.136-71.168-155.136-158.72 69.632-158.72 155.136-158.72zM200.192 176.64c66.56 0 121.856 55.808 121.856 124.416S267.776 425.984 200.192 425.984s-121.856-56.32-121.856-124.928S133.12 176.64 200.192 176.64zM376.832 317.44c10.752 48.64 37.888 91.648 75.264 121.856H315.904c34.304-30.72 56.832-73.728 60.928-121.856z m379.904 567.296c0 15.872-12.288 28.672-27.648 28.672H84.48c-15.36 0-27.648-12.8-27.648-28.672v-360.96c0-15.872 12.288-28.672 27.648-28.672h644.096c15.36 0 27.648 12.8 27.648 28.672v360.96z m212.48-43.008l-151.04-148.992c-0.512-0.512-0.512-1.536 0-2.048l151.04-128.512v279.552z" p-id="2880" fill="#bfbfbf"></path></svg>
