<svg t="1565858304719" class="icon" viewBox="0 0 1568 1024" version="1.1" xmlns="http://www.w3.org/2000/svg" p-id="10081" width="32" height="32"><path d="M319.377832 488.846454c-134.777189 0-244.423227-109.646038-244.423227-244.423227 0-134.771634 109.646038-244.423227 244.423227-244.423227 134.771634 0 244.423227 109.646038 244.423227 244.423227-0.005555 134.771634-109.651593 244.423227-244.423227 244.423227z m0-411.075427c-91.892023 0-166.6522 74.760177-166.652201 166.6522s74.760177 166.6522 166.652201 166.6522 166.6522-74.760177 166.6522-166.6522-74.760177-166.6522-166.6522-166.6522zM1218.794202 488.846454c-134.777189 0-244.423227-109.646038-244.423227-244.423227 0-134.771634 109.646038-244.423227 244.423227-244.423227s244.423227 109.646038 244.423227 244.423227c0 134.771634-109.646038 244.423227-244.423227 244.423227z m0-411.075427c-91.892023 0-166.6522 74.760177-166.6522 166.6522s74.760177 166.6522 166.6522 166.6522 166.6522-74.760177 166.6522-166.6522-74.760177-166.6522-166.6522-166.6522zM798.180713 872.057634l-1.166565-0.016665c-67.844111-1.994271-124.728062-35.869109-179.734398-68.621821-59.517056-35.441368-121.061713-72.088187-200.565923-72.088187a38.885513 38.885513 0 1 1 0-77.771027c100.907907 0 174.990365 44.112837 240.356913 83.037236 50.74004 30.208489 94.552903 56.300668 142.232098 57.706102a38.885513 38.885513 0 0 1-1.122125 77.754362z" fill="#bfbfbf" p-id="10082"></path><path d="M798.136273 872.057634a38.885513 38.885513 0 0 1-1.122125-77.754362c47.679195-1.399878 91.497613-27.492058 142.232098-57.706102 65.366548-38.924399 139.454561-83.037236 240.356913-83.037236 21.481469 0 38.885513 17.4096 38.885514 38.885513s-17.404045 38.885513-38.885514 38.885514c-79.50421 0-141.048867 36.646819-200.565923 72.088187-55.006336 32.752712-111.890287 66.62755-179.728843 68.621821-0.39441 0.01111-0.77771 0.016665-1.17212 0.016665z" fill="#bfbfbf" p-id="10083"></path><path d="M784.404132 207.259786c85.331482 0 168.268727 8.027081 245.956427 23.370194a186.67824 186.67824 0 0 1 21.920319-74.799063c-84.737089-17.254058-175.090357-26.342158-267.882301-26.342157-101.035674 0-199.20493 10.726847-290.347019 31.10841a204.115615 204.115615 0 0 1 21.742557 74.793508c84.142696-18.415068 174.912594-28.130891 268.610017-28.130892zM1398.117525 296.168735a187.322628 187.322628 0 0 1-36.719035 69.416197c84.153806 62.183491 129.638747 135.443798 129.638746 211.159448 0 94.225154-70.371669 184.667303-198.155021 254.661227-135.18271 74.049128-315.767034 114.823366-508.478083 114.823366-192.716604 0-373.300929-40.779793-508.478084-114.823366C148.142696 761.411683 77.771027 670.969534 77.771027 576.74438c0-62.189046 30.675115-122.728235 88.26456-176.83465a205.859908 205.859908 0 0 1-44.035066-65.027689C42.546307 405.859214 0 488.968666 0 576.74438c0 123.939241 84.720424 238.60151 238.562625 322.866418 146.437288 80.215259 340.287128 124.389202 545.841507 124.389202s399.398663-44.173943 545.841506-124.389202c153.836646-84.264908 238.562625-198.932732 238.562625-322.866418 0-104.285392-60.011457-202.004687-170.690738-280.575645z" fill="#bfbfbf" p-id="10084"></path><path d="M377.372798 165.146775m-106.979603 0a106.979602 106.979602 0 1 0 213.959205 0 106.979602 106.979602 0 1 0-213.959205 0Z" fill="#bfbfbf" p-id="10085"></path><path d="M1289.521396 165.774499m-106.979603 0a106.979602 106.979602 0 1 0 213.959205 0 106.979602 106.979602 0 1 0-213.959205 0Z" fill="#bfbfbf" p-id="10086"></path></svg>
