<svg t="1566975811915" class="icon" viewBox="0 0 1024 1024" version="1.1" xmlns="http://www.w3.org/2000/svg" p-id="19911" width="32" height="32"><path d="M256.3584 281.94304a28.44672 28.44672 0 1 0 0 56.89344h395.13088a28.45184 28.45184 0 1 0 0-56.89344H256.3584z m340.80256 171.35616H256.3584a28.44672 28.44672 0 1 0 0 56.89344h340.80256c15.70816 0 28.4416-12.73344 28.4416-28.44672s-12.73344-28.44672-28.4416-28.44672z m-114.28864 226.63168a28.4416 28.4416 0 1 0 0-56.88832H256.3584a28.44672 28.44672 0 1 0 0 56.88832h226.51392z" p-id="19912" fill="#dbdbdb"></path><path d="M538.48576 849.96096H197.92384a28.48256 28.48256 0 0 1-28.44672-28.45184V140.08832a28.47744 28.47744 0 0 1 28.44672-28.44672H765.0816a28.47744 28.47744 0 0 1 28.4416 28.44672V479.0784a28.45184 28.45184 0 0 0 56.89344 0V140.08832c0-47.0528-38.28224-85.33504-85.32992-85.33504H197.92384c-47.0528 0-85.33504 38.28224-85.33504 85.33504v681.4208c0 47.0528 38.28224 85.33504 85.33504 85.33504h340.56192a28.44672 28.44672 0 1 0 0-56.8832z" p-id="19913" fill="#dbdbdb"></path><path d="M966.77888 629.53984c-14.5664-14.5664-40.21248-12.53888-52.68992-0.05632L762.2656 781.312l-89.07264-89.07264c-8.83712-8.84736-33.62816-10.01472-48.19968 4.54656-14.5664 14.57152-11.72992 41.01632-2.88256 49.85856l124.34944 124.35456c7.552 7.552 21.2992 5.79584 34.21696-3.93216a34.9696 34.9696 0 0 0 3.90656-2.57024l183.3472-183.34208c12.46208-12.47744 13.4144-37.05344-1.152-51.61472z" p-id="19914" fill="#dbdbdb"></path></svg>
