<svg t="1566971591686" class="icon" viewBox="0 0 1024 1024" version="1.1" xmlns="http://www.w3.org/2000/svg" p-id="2076" width="32" height="32"><path d="M303.68 959.786667c-63.786667 0-113.856-50.218667-116.437333-116.821334L170.666667 355.136a33.877333 33.877333 0 0 1 32.426666-35.221333 34.090667 34.090667 0 0 1 34.730667 32.853333l16.576 492.138667c1.173333 30.506667 20.992 51.178667 49.28 51.178666h416.661333c28.266667 0 48.106667-20.672 49.28-51.349333l16.576-491.946667a34.218667 34.218667 0 0 1 34.730667-32.874666c18.56 0.618667 33.066667 16.405333 32.405333 35.221333l-16.576 487.68c-2.581333 66.773333-52.629333 116.970667-116.416 116.970667H303.68z m89.130667-767.658667H632.106667l-38.677334-64.469333h-162.816l-37.76 64.469333z m-82.666667 0.064l74.24-113.024A33.642667 33.642667 0 0 1 412.437333 64h198.848c11.221333 0 21.674667 5.546667 27.904 14.869333l76.16 113.322667h210.816c18.56 0 33.6 14.378667 33.6 32.149333 0 17.770667-15.04 32.170667-33.6 32.170667H97.6c-18.56 0-33.6-14.4-33.6-32.170667S79.04 192.213333 97.6 192.213333h212.544z m166.4 474.816l-1.536 47.701333a10.666667 10.666667 0 0 1-10.965333 10.325334l-146.453334-4.117334a10.666667 10.666667 0 0 1-9.216-15.466666l87.04-172.330667a10.666667 10.666667 0 0 1 14.293334-4.714667l42.730666 21.461334a10.666667 10.666667 0 0 1 4.714667 14.357333l-46.016 90.624 54.997333 1.152a10.666667 10.666667 0 0 1 10.432 11.008z m-13.930667-156.650667l-41.344-24a10.666667 10.666667 0 0 1-3.882666-14.592l84.181333-145.002666a10.666667 10.666667 0 0 1 18.453333 0l102.378667 175.914666a10.666667 10.666667 0 0 1-3.84 14.570667l-41.344 24.042667a10.666667 10.666667 0 0 1-14.570667-3.84l-51.776-88.96-33.664 58.005333a10.666667 10.666667 0 0 1-14.592 3.861333z m130.24 64.896l42.794667-21.333333a10.666667 10.666667 0 0 1 14.314667 4.842667l34.346666 69.504 0.021334 0.021333 35.2 70.613333a10.666667 10.666667 0 0 1-9.194667 15.445334l-187.562667 6.357333a10.666667 10.666667 0 0 1-11.029333-10.346667l-1.408-47.786666a10.666667 10.666667 0 0 1 10.304-10.965334l96.469333-3.2-29.077333-58.88a10.666667 10.666667 0 0 1 4.821333-14.272z" fill="#dbdbdb" p-id="2077"></path></svg>
