<svg t="1565857978891" class="icon" viewBox="0 0 1024 1024" version="1.1" xmlns="http://www.w3.org/2000/svg" p-id="6394" width="32" height="32"><path d="M957.588 9.988c-5.845-3.774-26.861-14.265-51.857 9.259-3.143 2.952-6.23 5.888-9.288 8.795-65.137 61.887-108.169 102.777-347.154 22.385-64.314-21.633-129.684-31.287-194.293-28.698-51.75 2.072-103.062 11.968-152.497 29.409C118.031 80.93 68.052 122.549 65.967 124.303c-1.849 1.557-3.445 3.288-4.813 5.155-12.227 7.608-17.308 23.247-11.308 36.789l369.964 835.892c6.561 14.832 23.897 21.527 38.724 14.965 14.825-6.561 21.527-23.897 14.965-38.723L302.03 590.96c0.947-1.804 1.904-3.632 2.881-5.491 38.896-74.309 82.988-158.527 309.512-138.435 41.301 3.664 81.698-3.115 120.191-20.154 2.387-1.053 4.774-2.152 7.146-3.289 34.918-16.707 68.178-41.973 98.854-75.081 48.011-51.812 90.321-124.538 116.082-199.529 9.812-28.559 16.328-55.012 18.85-76.505C977.926 52.164 978.655 23.589 957.588 9.988L957.588 9.988zM894.99 146.906c-21.936 57.262-53.549 111.35-89.022 152.296-56.523 65.242-119.216 95.309-186.356 89.346-115.928-10.281-202.652 4.505-265.143 45.218-39.725 25.881-64.161 58.501-82.426 89.441L112.456 162.644c16.524-11.895 55.806-37.489 111.843-56.938 99.672-34.587 202.718-34.464 306.269 0.37 122.567 41.227 209.393 54.971 273.25 43.244 47.689-8.757 79.963-30.879 108.112-55.621C908.347 108.317 902.929 126.178 894.99 146.906L894.99 146.906z" p-id="6395" fill="#bfbfbf"></path></svg>
