<svg t="1566973018140" class="icon" viewBox="0 0 1053 1024" version="1.1" xmlns="http://www.w3.org/2000/svg" p-id="8065" width="32" height="32"><path d="M530.071151 865.117479c-183.464074-91.672199-400.461503 27.214436-400.461502 27.214436V441.223318a748.456828 748.456828 0 0 1 109.958768-31.16376c0.215418 16.036651 1.57973 32.073302 4.069001 47.942405-20.488617 4.691319-40.522463 11.15385-59.910056 19.291852v342.849236s154.86139-72.188864 321.28353-17.688187c161.347857 52.873077 211.109345 79.082231 363.385723-12.494226V501.731756a354.194568 354.194568 0 0 1-73.984012 32.312655c8.425226-22.235894 14.696274-45.237717 18.765276-68.64644 70.752746-39.277827 110.341733-60.269085 110.341732-60.269085v415.014165c0.023935 0-204.048432 139.566734-393.44846 44.974428z m176.953673-333.682015l-164.411575 183.296526-160.390445-165.24931s-90.236081-73.265953-90.236081-185.546445c0-131.476602 106.607826-238.060493 238.060493-238.060493a254.432238 254.432238 0 0 1 249.142537 243.182647c2.249918 92.58174-72.164929 162.377074-72.164929 162.377075zM530.071151 175.972325a187.96391 187.96391 0 0 0-187.96391 187.939975v0.023935c0 59.551026 34.490767 100.16923 76.209995 149.475948l124.296013 126.162965 110.269926-126.162965c32.575943-43.610116 72.188864-90.978075 72.188865-144.353794a198.495442 198.495442 0 0 0-195.000889-193.086064z" p-id="8066" fill="#dbdbdb"></path></svg>
