<svg t="1565858379655" class="icon" viewBox="0 0 1024 1024" version="1.1" xmlns="http://www.w3.org/2000/svg" p-id="11063" width="32" height="32"><path d="M1000.6528 417.792c-5.3248-28.4672-22.528-46.4896-43.4176-46.08l-4.3008 0c-71.68 0-130.048-57.9584-130.048-129.024 0-23.3472 11.264-49.152 11.264-49.3568 11.0592-24.7808 2.6624-55.0912-19.8656-70.656l-1.2288-0.8192-124.928-69.0176-1.2288-0.6144c-7.3728-3.2768-15.5648-4.9152-24.1664-4.9152-17.8176 0-35.2256 6.9632-46.6944 18.8416-15.36 15.5648-63.488 56.32-102.1952 56.32-39.3216 0-87.6544-41.3696-103.0144-57.344-11.4688-12.0832-29.0816-19.2512-47.104-19.2512-8.3968 0-16.384 1.6384-23.7568 4.7104l-1.4336 0.6144-129.4336 70.656-1.2288 0.8192c-22.3232 15.5648-30.9248 45.8752-19.8656 70.4512 0.2048 0.2048 11.264 26.0096 11.264 49.3568 0 71.0656-58.368 129.024-130.048 129.024l-4.3008 0c-20.8896-0.4096-37.888 17.8176-43.4176 46.08-0.4096 2.2528-10.4448 55.5008-10.4448 97.28 0 41.7792 10.0352 95.0272 10.4448 97.28 5.3248 28.0576 22.1184 46.08 42.5984 46.08l5.12 0c71.68 0 130.048 57.7536 130.048 129.024 0 23.3472-11.264 49.152-11.264 49.3568-11.0592 24.7808-2.6624 55.0912 19.8656 70.656l1.2288 0.8192 122.6752 68.1984 1.2288 0.4096c7.3728 3.2768 15.5648 4.9152 23.9616 4.9152 18.0224 0 35.6352-7.3728 46.8992-19.6608 14.336-15.5648 64.3072-59.8016 104.448-59.8016 40.3456 0 89.7024 44.032 105.2672 61.0304 11.4688 12.4928 29.0816 19.8656 47.3088 19.8656 8.3968 0 16.384-1.6384 23.552-4.7104l1.4336-0.6144 127.1808-69.8368 1.2288-0.8192c22.3232-15.5648 30.9248-45.8752 19.8656-70.4512-0.2048-0.2048-11.264-26.0096-11.264-49.3568 0-71.0656 58.368-129.024 130.048-129.024l4.3008 0c20.8896 0.4096 38.0928-17.8176 43.4176-46.08 0.4096-2.2528 10.4448-55.5008 10.4448-97.28C1011.0976 473.2928 1001.0624 420.0448 1000.6528 417.792L1000.6528 417.792zM942.8992 600.4736c-99.5328 5.12-178.9952 87.04-178.9952 187.1872 0 33.5872 13.1072 65.536 15.9744 72.0896l-118.784 65.1264-0.2048 0c-1.6384 0-3.2768-0.6144-3.8912-1.024-2.048-2.2528-19.2512-20.6848-44.032-38.912-37.0688-27.2384-72.0896-41.1648-104.448-41.1648-32.1536 0-66.9696 13.5168-103.8336 40.3456-24.576 18.0224-41.7792 35.84-43.8272 38.2976-0.6144 0.4096-2.048 1.024-3.8912 1.024l-0.2048 0-114.4832-63.488c2.8672-6.5536 15.9744-38.7072 15.9744-72.2944 0-100.1472-79.4624-182.0672-178.9952-187.1872-1.4336-7.9872-9.216-52.0192-9.216-85.1968 0-33.1776 7.7824-77.4144 9.216-85.1968 99.5328-5.12 178.9952-87.04 178.9952-187.1872 0-33.3824-13.1072-65.536-15.9744-72.0896l121.0368-65.9456 0.4096 0c2.048 0 3.8912 0.8192 4.5056 1.2288 2.048 2.048 19.0464 19.456 43.4176 36.6592 36.2496 25.6 70.4512 38.7072 101.9904 38.7072 31.1296 0 65.1264-12.6976 101.1712-37.888 24.3712-16.9984 41.1648-33.9968 43.2128-36.0448 0.6144-0.4096 2.4576-1.2288 4.5056-1.2288l0.4096 0 116.736 64.512c-2.8672 6.5536-15.9744 38.7072-15.9744 72.0896 0 100.1472 79.4624 182.0672 178.9952 187.1872 1.4336 7.9872 9.216 52.0192 9.216 85.1968C952.1152 548.2496 944.3328 592.4864 942.8992 600.4736L942.8992 600.4736zM508.928 342.6304c-95.4368 0-173.056 77.0048-173.056 171.8272s77.6192 171.8272 173.056 171.8272 173.056-77.0048 173.056-171.8272S604.3648 342.6304 508.928 342.6304L508.928 342.6304zM508.928 627.9168c-62.8736 0-114.2784-50.7904-114.2784-113.4592 0-62.464 51.2-113.4592 114.2784-113.4592 62.8736 0 114.2784 50.7904 114.2784 113.4592S572.0064 627.9168 508.928 627.9168L508.928 627.9168z" p-id="11064" fill="#bfbfbf"></path></svg>
