<svg t="1566971948101" class="icon" viewBox="0 0 1029 1024" version="1.1" xmlns="http://www.w3.org/2000/svg" p-id="3915" width="32" height="32"><path d="M535.139297 1023.991c-26.876764 0-55.086516-7.307936-86.164243-22.334804-22.265804-10.791905-96.74915-49.314567-141.214759-72.332364l-40.264646-20.797817c-13.147884-6.727941-21.822808-9.767914-28.139753-9.767914-5.874948 0-11.611898 2.492978-24.521784 10.655906l-68.849395 44.703607a16.825852 16.825852 0 0 1-9.219919 2.731976c-1.604986 0-3.209972-0.238998-4.780958-0.682994-4.746958-1.399988-8.639924-4.780958-10.654906-9.289918L1.832984 681.660009c-3.789967-8.469926-0.101999-18.407838 8.299927-22.300804l13.864878-6.419944c1.09199-0.512995 115.498985-53.754528 169.014515-74.826342 28.959745-11.4059 54.880518-16.938851 79.299303-16.938851 46.991587 0 79.709299 20.627819 111.367021 40.571643l6.727941 4.234963c17.655845 11.030903 66.184418 46.138594 86.197242 60.686467l0.136999 0.102999c6.761941 3.653968 22.7788 11.884896 43.474618 19.26083 3.721967-2.355979 8.434926-5.361953 13.044885-8.298927l5.429952-3.448969c19.227831-12.225893 23.974789-15.128867 25.682775-16.119859 13.864878-7.819931 33.365707-19.533828 57.95449-34.765694 28.41375-17.587845 61.676458-35.550688 93.232181-35.550688 18.509837 0 35.005692 5.770949 50.169559 17.621845 19.669827-11.133902 42.756624-16.939851 67.652405-16.939851 24.793782 0 46.958587 9.904913 60.857465 27.184761 0.819993 1.058991 1.639986 2.117981 2.390979 3.209972 17.655845-6.726941 34.287699-10.107911 49.553565-10.107911 27.729756 0 51.875544 11.508899 67.995402 32.409715 12.361891 16.118858 17.416847 34.252699 14.615872 52.558538-3.892966 25.783773-22.231805 49.553564-57.749493 74.689344-27.491758 19.36283-286.836479 191.041321-323.310158 212.044136-5.087955 2.936974-10.346909 6.215945-15.264866 9.322918C608.324653 1005.071166 578.169918 1023.991 535.139297 1023.991zM239.149898 833.904671c17.10985 0 35.551688 5.395953 58.05749 17.00785l42.723624 22.061806c49.143568 25.408777 116.454976 60.174471 137.321793 70.283383 22.402803 10.893904 41.356637 16.152858 57.920491 16.152858 23.87179 0 41.117639-10.825905 62.974447-24.519785 5.054956-3.175972 11.269901-7.103938 17.451846-10.655906C651.014278 903.813056 906.602032 734.593544 933.820793 715.434712c28.652748-20.354821 30.940728-30.76973 31.043727-31.487723-0.102999-0.375997-0.579995-1.536986-1.946983-3.312971-2.32198-3.004974-6.624942-6.999938-17.04185-6.999939-9.561916 0-26.773765 3.41397-54.402522 19.669828l-30.70173 18.13484a16.922851 16.922851 0 0 1-8.605925 2.355979 17.06385 17.06385 0 0 1-9.937912-3.209971c-5.464952-3.960965-8.025929-10.791905-6.557943-17.382848l7.752932-34.833693c0.272998-1.195989 0.272998-1.980983 0.238998-2.32298-1.024991-1.023991-4.473961-2.799975-10.21091-2.799975-20.354821 0-35.995684 5.839949-47.84658 17.826843l-12.53289 12.737888a16.957851 16.957851 0 0 1-12.055894 5.054956c-0.340997 0-0.716994 0-1.05899-0.034a16.906851 16.906851 0 0 1-12.396891-6.625942l-10.825905-14.239875c-9.766914-12.909887-15.401865-15.436864-21.787809-15.436864-11.440899 0-29.984736 8.195928-58.364487 25.817773a2501.013018 2501.013018 0 0 1-35.790685 21.822808c30.462732 1.672985 52.661537 5.941948 69.907385 13.352883 30.838729 13.216884 46.479591 36.917676 46.479592 70.419381 0 22.403803-12.054894 41.529635-33.911702 53.789527-20.49082 11.473899-44.738607 14.889869-61.506459 15.742862-0.272998 0-0.545995 0.034-0.853993 0.033999l-159.486598 0.035c-57.98849 0-133.428827-30.053736-141.863753-33.468706a16.989851 16.989851 0 0 1-9.220919-9.11792c-1.741985-4.166963-1.775984-8.810923-0.068-12.977885l11.747897-28.652749a16.916851 16.916851 0 0 1 9.288918-9.254918c2.049982-0.819993 4.199963-1.229989 6.351945-1.229989 2.21998 0 4.473961 0.443996 6.556942 1.331988 1.604986 0.649994 70.829377 28.584749 117.17297 28.584749h158.15461c13.079885-0.750993 27.594757-4.678959 32.750712-7.922931-0.135999-3.687968-0.749993-4.405961-4.097964-6.317944-8.161928-4.712959-28.652748-10.313909-79.777299-10.31391-70.727378 0-138.688781-38.317663-146.201715-42.689624-0.340997-0.203998-0.716994-0.442996-1.05799-0.647995-0.477996-0.341997-1.399988-0.989991-6.249945-4.50796-15.675862-11.3379-63.384443-45.865597-78.957306-55.598511l-6.82994-4.302963c-28.311751-17.792844-48.734572-30.599731-77.114323-30.599731-15.91386 0-34.014701 4.063964-55.256514 12.430891-36.507679 14.446873-104.025086 45.079604-136.399801 59.935473l77.079322 171.098496s22.334804-14.479873 22.368804-14.514872c17.211849-10.825905 36.268681-20.899816 59.354478-20.899816z" p-id="3916" fill="#dbdbdb"></path><path d="M516.56046 641.838359c-18.372839 0-35.755686-8.059929-47.709581-22.129806-31.930719-37.907667-74.859342-73.083358-116.352977-107.099058l-0.135999-0.101999c-47.436583-38.829659-96.477152-79.025305-133.668825-125.778895-43.029622-54.129524-63.930438-109.933034-63.930438-170.6195 0-61.233462 21.549811-116.488976 60.686466-155.558633C254.620762 21.514811 309.947276 0 371.316736 0c48.801571 0 99.072129 21.822808 146.098716 63.282444C564.545038 21.822808 614.882596 0 663.718167 0c61.336461 0 116.694974 21.514811 155.79863 60.549468 39.136656 39.069657 60.686467 94.292171 60.686467 155.559633 0 60.686467-20.899816 116.488976-63.862439 170.551501-37.088674 46.68459-85.856245 86.607239-133.018831 125.232899l-0.785993 0.647994c-41.459636 34.014701-84.353259 69.156392-116.523976 107.167058-11.816896 14.035877-29.199743 22.163805-47.675581 22.163806h-1.775984zM371.316736 64.784431c-89.305215 0-151.699667 62.224453-151.699666 151.29067 0 103.888087 88.007226 175.981453 173.112478 245.649841 43.815615 35.926684 89.100217 73.015358 124.719904 114.986989 36.234682-42.483627 81.246286-79.333303 124.822903-114.952989C727.410607 392.056554 815.418833 319.997188 815.418833 216.075101 815.382834 127.008884 753.023382 64.784431 663.718167 64.784431c-52.148542 0-99.379127 41.220638-122.87592 65.775422l-11.166902 11.679897a16.922851 16.922851 0 0 1-12.226893 5.224954c-4.609959 0-9.015921-1.877983-12.225892-5.224954l-11.201902-11.679897c-23.529793-24.554784-70.726378-65.775422-122.704922-65.775422z" p-id="3917" fill="#dbdbdb"></path></svg>
